<svg width="375" height="204" viewBox="0 0 375 204" fill="none" xmlns="http://www.w3.org/2000/svg">
<g opacity="0.92">
<rect x="273" y="193" width="31.684" height="6.75" transform="rotate(-129 273 193)" fill="#9DED1A" fill-opacity="0.75"/>
<rect x="89" y="43" width="32.684" height="7.75" transform="rotate(-112 89 43)" fill="#C9FCBE" fill-opacity="0.35"/>
<rect x="290" y="189" width="11.684" height="4.75" transform="rotate(127 290 189)" fill="#480CA7"/>
<rect x="70" y="8" width="23.684" height="6.75" transform="rotate(-100 70 8)" fill="#9AF5FC" fill-opacity="0.9"/>
<rect x="277" y="-12" width="28.684" height="7.75" transform="rotate(80 277 -12)" fill="#BA3E03" fill-opacity="0.6"/>
<rect x="274" y="184" width="14.684" height="3.75" transform="rotate(-130 274 184)" fill="#9DED1A"/>
<rect x="335" y="82" width="18.684" height="4.75" transform="rotate(127 335 82)" fill="#4BC8EF"/>
<rect x="50" y="28" width="25.684" height="5.75" transform="rotate(-85 50 28)" fill="#FFED36" fill-opacity="0.85"/>
<rect x="255" y="88" width="31.684" height="6.75" transform="rotate(66 255 88)" fill="#9AF5FC" fill-opacity="0.75"/>
<circle cx="219.03" cy="47.03" r="5.03" fill="#DCBCFA" fill-opacity="0.85"/>
<circle cx="171.03" cy="39.03" r="5.03" fill="#C9FCBE" fill-opacity="0.45"/>
<circle cx="329.53" cy="141.53" r="5.53" fill="#F54721" fill-opacity="0.35"/>
<circle cx="300.03" cy="197.03" r="6.03" fill="#DCBCFA" fill-opacity="0.6"/>
<circle cx="8.53" cy="-2.47" r="5.53" fill="#F54721"/>
<circle cx="62.53" cy="8.53" r="5.53" fill="#9AF5FC" fill-opacity="0.9"/>
<circle cx="182.03" cy="0.03" r="3.03" fill="#F54721" fill-opacity="0.75"/>
<circle cx="20.03" cy="150.03" r="6.03" fill="#FFED36" fill-opacity="0.6"/>
<circle cx="95.53" cy="96.53" r="3.53" fill="#FF21FB" fill-opacity="0.35"/>
<circle cx="371.53" cy="119.53" r="2.53" fill="#755FFE" fill-opacity="0.6"/>
<path d="M173.363 124.095L183.401 121.027L181.04 131.254L173.363 124.095Z" fill="#DCBCFA" fill-opacity="0.9"/>
<path d="M368.239 107.973L375.573 110.356L375.573 118.068L368.239 120.451L363.706 114.212L368.239 107.973Z" fill="#FFED36" fill-opacity="0.85"/>
<path d="M133.451 55.6751L127.04 59.6813L120.364 56.1321L120.101 48.5767L126.512 44.5705L133.187 48.1197L133.451 55.6751Z" fill="#755FFE" fill-opacity="0.65"/>
<path d="M341.18 117.405L340 121.809L335.595 122.989L332.371 119.765L333.551 115.36L337.956 114.18L341.18 117.405Z" fill="#FFED36" fill-opacity="0.35"/>
<path d="M108.739 92.0793L99.1611 93.0859L103.078 84.2883L108.739 92.0793Z" fill="#FF21FB" fill-opacity="0.75"/>
<path d="M253.543 148.603L257.675 150.53L258.073 155.072L254.338 157.688L250.205 155.761L249.807 151.218L253.543 148.603Z" fill="#F62584" fill-opacity="0.9"/>
<path d="M358.521 0.737549L361.449 9.7489L353.783 15.3182L346.118 9.7489L349.046 0.73755L358.521 0.737549Z" fill="#FF21FB" fill-opacity="0.6"/>
<path d="M131.843 37.6175L130.069 43.0782L124.608 41.3039L126.383 35.8432L131.843 37.6175Z" fill="#9AF5FC" fill-opacity="0.35"/>
<path d="M210.18 119.405L204.595 124.989L202.551 117.36L210.18 119.405Z" fill="#FF21FB" fill-opacity="0.9"/>
<path d="M286.703 39.5085L277.951 39.9672L281.929 32.1582L286.703 39.5085Z" fill="#9AF5FC" fill-opacity="0.35"/>
<path d="M211.133 4.58357L209.125 -0.386695L213.231 -3.83242L217.777 -0.991737L216.48 4.20963L211.133 4.58357Z" fill="#FFED36" fill-opacity="0.9"/>
<path d="M32.6718 165.368L30.8048 157.281L37.9188 153.007L44.1826 158.452L40.9397 166.092L32.6718 165.368Z" fill="#4BC8EF" fill-opacity="0.75"/>
<path d="M232.902 68.2247L231.1 74.5077L224.568 74.7358L222.332 68.5938L227.483 64.5697L232.902 68.2247Z" fill="#9DED1A"/>
<path d="M28.5206 65.8389L24.5891 66.066L22.2023 69.1984L21.9752 65.2669L18.8428 62.8801L22.7743 62.653L25.1611 59.5206L25.3882 63.4521L28.5206 65.8389Z" fill="#9DED1A" fill-opacity="0.9"/>
<path d="M206.649 183.22L208.698 185.342L211.349 184.049L209.965 186.653L212.014 188.775L209.109 188.263L207.724 190.868L207.313 187.947L204.408 187.434L207.06 186.141L206.649 183.22Z" fill="#C9FCBE" fill-opacity="0.75"/>
<path d="M86.4864 144.052L87.7405 149.801L92.9207 152.591L87.1721 153.845L84.3821 159.025L83.1281 153.276L77.9479 150.486L83.6964 149.232L86.4864 144.052Z" fill="#F54721" fill-opacity="0.65"/>
<path d="M361.086 83.2146L366.695 83.1238L366.785 77.5154L369.668 82.327L374.571 79.6014L371.845 84.5039L376.657 87.3868L371.048 87.4777L370.958 93.0861L368.075 88.2745L363.172 91L365.898 86.0975L361.086 83.2146Z" fill="#FC9E1C" fill-opacity="0.85"/>
<path d="M66.6474 126.216L70.5844 126.126L73.0791 123.079L73.1688 127.016L76.216 129.51L72.279 129.6L69.7843 132.647L69.6946 128.71L66.6474 126.216Z" fill="#BA3E03" fill-opacity="0.9"/>
<path d="M69.8174 180.467L64.0478 181.62L61.1678 186.751L60.0143 180.982L54.8835 178.102L60.6531 176.948L63.5331 171.817L64.6866 177.587L69.8174 180.467Z" fill="#C9FCBE" fill-opacity="0.65"/>
<path d="M318.864 31.6053L321.196 34.7788L325.123 35.0745L321.949 37.4063L321.653 41.3332L319.322 38.1597L315.395 37.864L318.568 35.5322L318.864 31.6053Z" fill="#C9FCBE" fill-opacity="0.65"/>
<path d="M190.708 93.228L188.205 95.1786L190.074 97.7436L187.133 96.5511L185.846 99.4518L185.408 96.3087L182.252 96.6444L184.755 94.6938L182.887 92.1287L185.828 93.3212L187.115 90.4205L187.553 93.5636L190.708 93.228Z" fill="#480CA7" fill-opacity="0.75"/>
<path d="M25.2525 72.8762L23.3044 75.9939L25.6674 78.8101L22.1003 77.9207L20.1522 81.0384L19.8957 77.371L16.3286 76.4817L19.7373 75.1045L19.4808 71.4371L21.8439 74.2534L25.2525 72.8762Z" fill="#DCBCFA" fill-opacity="0.45"/>
<path d="M127.264 22.9277L131.855 26.1507L135.225 21.6668L134.729 27.254L140.297 27.9306L135.21 30.2948L137.408 35.4553L132.818 32.2322L129.448 36.7161L129.944 31.1289L124.375 30.4523L129.462 28.0882L127.264 22.9277Z" fill="#9DED1A" fill-opacity="0.85"/>
<path d="M346.573 61.5017L343.522 65.5955L344.644 70.5762L340.55 67.5255L335.569 68.6473L338.62 64.5535L337.498 59.5728L341.592 62.6236L346.573 61.5017Z" fill="#F54721" fill-opacity="0.45"/>
<path d="M260.607 61.9897L254.778 59.671L249.224 62.5863L251.543 56.7577L248.627 51.2034L254.456 53.5221L260.01 50.6068L257.691 56.4354L260.607 61.9897Z" fill="#480CA7" fill-opacity="0.6"/>
<path d="M156.448 39.709L155.16 35.5777L151.186 33.8656L155.318 32.5784L157.03 28.6043L158.317 32.7356L162.291 34.4476L158.16 35.7349L156.448 39.709Z" fill="#755FFE" fill-opacity="0.75"/>
<path d="M287.097 133.562L283.777 130.961L281.071 134.195L281.663 130.02L277.509 129.293L281.421 127.718L279.973 123.757L283.293 126.357L286 123.123L285.408 127.299L289.562 128.026L285.65 129.601L287.097 133.562Z" fill="#4BC8EF"/>
</g>
</svg>
