<svg width="97" height="96" viewBox="0 0 97 96" fill="none" xmlns="http://www.w3.org/2000/svg">
<rect width="96" height="96" transform="translate(0.5)" fill="white" fill-opacity="0.01"/>
<path fill-rule="evenodd" clip-rule="evenodd" d="M74.5008 32.0173C74.5008 17.6713 62.8293 5.99976 48.4833 5.99976C34.1366 5.99976 22.4658 17.6713 22.4658 32.0173C22.4658 46.3633 34.1366 58.0348 48.4833 58.0348C62.8293 58.0348 74.5008 46.3633 74.5008 32.0173ZM66.3179 63.9826C66.3179 73.7986 58.3319 81.7838 48.5159 81.7838V90.0001C62.8619 90.0001 74.5341 78.3286 74.5341 63.9826H66.3179ZM30.6813 32.0173C30.6813 22.202 38.6673 14.216 48.4833 14.216C58.2986 14.216 66.2846 22.202 66.2846 32.0173C66.2846 41.8333 58.2986 49.8185 48.4833 49.8185C38.6673 49.8185 30.6813 41.8333 30.6813 32.0173Z" fill="white"/>
</svg>
