<svg width="70" height="26" viewBox="0 0 70 26" fill="none" xmlns="http://www.w3.org/2000/svg">
<path d="M0 9.4398C0 8.36959 0.471618 7.83484 1.52688 7.83484H6.93873C10.9634 7.83484 13.2945 9.32681 13.2945 12.7353C13.2945 14.7347 12.2399 16.1712 10.4358 16.6505C12.6555 17.2421 13.8775 18.6506 13.8775 20.9313C13.8775 24.3679 11.5457 25.8606 7.49402 25.8606H1.52688C0.471618 25.8606 0 25.3258 0 24.2549V9.4398ZM6.57776 14.8757C8.02096 14.8757 8.74222 14.5936 8.74222 13.2701C8.74222 11.9451 7.9933 11.6356 6.52244 11.6356H4.44095V14.875H6.57776V14.8757ZM7.10539 22.0584C8.57626 22.0584 9.29751 21.664 9.29751 20.2843C9.29751 18.932 8.57626 18.5383 7.10539 18.5383H4.44095V22.0591H7.10539V22.0584ZM22.9834 7.69238C26.6748 7.69238 27.896 8.36889 27.896 9.91771V11.6356H22.9834C20.5686 11.6356 19.9864 12.7059 19.9864 16.8463C19.9864 20.9861 20.5693 22.0577 22.9834 22.0577H27.896V23.7756C27.896 25.3251 26.6748 26.0002 22.9834 26.0002C18.0709 26.0002 15.4064 23.2682 15.4064 16.8463C15.4064 10.4251 18.0709 7.69238 22.9834 7.69238ZM29.286 9.4398C29.286 8.36959 29.7576 7.83484 30.8128 7.83484H36.5864C40.638 7.83484 42.9698 9.72191 42.9698 13.2708C42.9698 15.7207 42.0542 17.2983 39.8614 18.1993L43.3308 25.0718C43.4414 25.3258 43.5804 25.5792 43.5804 25.8606H39.7501C38.9451 25.8606 38.6118 25.8606 38.2239 25.0437L35.1148 18.5376H33.7269V25.8606H29.286V9.4398ZM33.7269 11.6363V14.8757H36.253C37.5296 14.8757 38.5288 14.7066 38.5288 13.2701C38.5288 11.8616 37.5296 11.6356 36.253 11.6356L33.7269 11.6363Z" fill="white"/>
<path d="M56.843 5.7763C56.2013 5.11523 55.8797 4.31661 55.8797 3.38325C55.8797 2.46954 56.2013 1.67022 56.8333 1.00915C57.4723 0.341062 58.2475 0 59.1486 0C60.0303 0 60.8034 0.334044 61.4458 0.999325C62.0889 1.6618 62.4167 2.46954 62.4167 3.38325C62.4167 4.31661 62.0951 5.11523 61.4534 5.7763C60.8089 6.44158 60.0296 6.77422 59.1479 6.77422C58.2475 6.77492 57.4723 6.44158 56.843 5.7763ZM69.9999 13.4165V11.3589C69.9999 9.41429 68.4454 7.83319 66.5278 7.83319H51.7659C49.8483 7.83319 48.2944 9.41429 48.2944 11.3589V19.1072H64.7603V20.2812H48.2951V22.336C48.2951 24.2814 49.8483 25.8603 51.7666 25.8603H66.5278C68.4454 25.8603 69.9999 24.2814 69.9999 22.336V14.5899H53.5355V13.4165H69.9999Z" fill="#F9F9F9"/>
</svg>
